<svg width="19" height="22" viewBox="0 0 19 22" fill="none" xmlns="http://www.w3.org/2000/svg">
<path d="M9.48145 0C11.8684 0 14.1576 0.993372 15.8454 2.76159C17.5332 4.5298 18.4814 6.92801 18.4814 9.42865C18.4814 13.934 15.5789 18.081 9.88344 21.8776C9.76325 21.9575 9.62382 22 9.48145 22C9.33907 22 9.19964 21.9575 9.07944 21.8776C3.38395 18.081 0.481445 13.934 0.481445 9.42865C0.481445 6.92801 1.42966 4.5298 3.11748 2.76159C4.80531 0.993372 7.0945 0 9.48145 0ZM9.48145 6.28576C8.6858 6.28576 7.92273 6.61689 7.36012 7.20629C6.79752 7.7957 6.48145 8.5951 6.48145 9.42865C6.48145 10.2622 6.79752 11.0616 7.36012 11.651C7.92273 12.2404 8.6858 12.5715 9.48145 12.5715C10.2771 12.5715 11.0402 12.2404 11.6028 11.651C12.1654 11.0616 12.4814 10.2622 12.4814 9.42865C12.4814 8.5951 12.1654 7.7957 11.6028 7.20629C11.0402 6.61689 10.2771 6.28576 9.48145 6.28576Z" fill="#F59E0B"/>
</svg>
