<svg width="38" height="36" viewBox="0 0 38 36" fill="none" xmlns="http://www.w3.org/2000/svg">
<path d="M0.231445 4C0.231445 1.79086 2.02231 0 4.23145 0H28.9289C31.138 0 32.9289 1.79086 32.9289 4V8C32.9289 21.2548 22.1837 32 8.92886 32H4.23145C2.02231 32 0.231445 30.2091 0.231445 28V4Z" fill="#F59E0B"/>
<path d="M4.31836 8C4.31836 5.79086 6.10922 4 8.31836 4H33.0158C35.2249 4 37.0158 5.79086 37.0158 8V12C37.0158 25.2548 26.2706 36 13.0158 36H8.31836C6.10922 36 4.31836 34.2091 4.31836 32V8Z" fill="#4BE4C9"/>
</svg>
