<svg width="271" height="39" viewBox="0 0 271 39" fill="none" xmlns="http://www.w3.org/2000/svg">
<rect x="2" width="267" height="32" fill="white"/>
<g filter="url(#filter0_d_10_5)">
<mask id="path-2-outside-1_10_5" maskUnits="userSpaceOnUse" x="2" y="1" width="267" height="31" fill="black">
<rect fill="white" x="2" y="1" width="267" height="31"/>
<path d="M15.76 30V16.04L16.04 18L4.72 2H12.44L21.08 14.4L17.56 14.28L25.36 2H32.84L22 18.44L22.6 15.72V30H15.76ZM42.215 30.4C40.0017 30.4 38.0283 29.92 36.295 28.96C34.5883 28 33.2283 26.6933 32.215 25.04C31.2283 23.3867 30.735 21.4933 30.735 19.36C30.735 17.2267 31.2283 15.3333 32.215 13.68C33.2283 12.0267 34.5883 10.72 36.295 9.76C38.0283 8.8 40.0017 8.32 42.215 8.32C44.4283 8.32 46.3883 8.8 48.095 9.76C49.8283 10.72 51.1883 12.0267 52.175 13.68C53.1617 15.3333 53.655 17.2267 53.655 19.36C53.655 21.4933 53.1617 23.3867 52.175 25.04C51.1883 26.6933 49.8283 28 48.095 28.96C46.3883 29.92 44.4283 30.4 42.215 30.4ZM42.215 24.88C43.175 24.88 44.0283 24.64 44.775 24.16C45.5217 23.68 46.1083 23.0267 46.535 22.2C46.9617 21.3733 47.1617 20.4267 47.135 19.36C47.1617 18.2933 46.9617 17.3467 46.535 16.52C46.1083 15.6667 45.5217 15 44.775 14.52C44.0283 14.04 43.175 13.8 42.215 13.8C41.255 13.8 40.3883 14.04 39.615 14.52C38.8683 15 38.2817 15.6667 37.855 16.52C37.4283 17.3467 37.2283 18.2933 37.255 19.36C37.2283 20.4267 37.4283 21.3733 37.855 22.2C38.2817 23.0267 38.8683 23.68 39.615 24.16C40.3883 24.64 41.255 24.88 42.215 24.88ZM65.08 30.44C63.5067 30.44 62.16 30.1067 61.04 29.44C59.9467 28.7467 59.0933 27.76 58.48 26.48C57.8933 25.2 57.6 23.6667 57.6 21.88V8.76H64.04V21C64.04 21.8533 64.1733 22.5867 64.44 23.2C64.7067 23.8133 65.1067 24.2933 65.64 24.64C66.1733 24.96 66.8133 25.12 67.56 25.12C68.12 25.12 68.6267 25.0267 69.08 24.84C69.56 24.6533 69.96 24.4 70.28 24.08C70.6267 23.7333 70.8933 23.3467 71.08 22.92C71.2667 22.4667 71.36 21.9733 71.36 21.44V8.76H77.8V30H71.76L71.48 25.64L72.68 25.16C72.36 26.1733 71.8267 27.08 71.08 27.88C70.3333 28.6533 69.44 29.28 68.4 29.76C67.36 30.2133 66.2533 30.44 65.08 30.44ZM83.5041 30V8.76H89.5841L89.8641 15.68L88.6641 14.36C88.9841 13.2133 89.5041 12.1867 90.2241 11.28C90.9707 10.3733 91.8374 9.65333 92.8241 9.12C93.8107 8.58666 94.8641 8.32 95.9841 8.32C96.4641 8.32 96.9041 8.36 97.3041 8.44C97.7307 8.52 98.1174 8.61333 98.4641 8.72L96.7041 15.8C96.4107 15.6133 96.0107 15.4667 95.5041 15.36C95.0241 15.2267 94.5174 15.16 93.9841 15.16C93.3974 15.16 92.8507 15.2667 92.3441 15.48C91.8374 15.6667 91.4107 15.9467 91.0641 16.32C90.7174 16.6933 90.4374 17.1333 90.2241 17.64C90.0374 18.1467 89.9441 18.72 89.9441 19.36V30H83.5041ZM115.2 30V2H126.92C128.973 2 130.853 2.34667 132.56 3.04C134.266 3.70667 135.733 4.66666 136.96 5.92C138.213 7.17333 139.173 8.65333 139.84 10.36C140.506 12.0667 140.84 13.9467 140.84 16C140.84 18.0533 140.506 19.9467 139.84 21.68C139.173 23.3867 138.213 24.8667 136.96 26.12C135.733 27.3467 134.266 28.3067 132.56 29C130.853 29.6667 128.973 30 126.92 30H115.2ZM122 25.36L121.08 24H126.72C127.84 24 128.84 23.8133 129.72 23.44C130.6 23.04 131.346 22.4933 131.96 21.8C132.6 21.1067 133.093 20.2667 133.44 19.28C133.786 18.2933 133.96 17.2 133.96 16C133.96 14.8 133.786 13.7067 133.44 12.72C133.093 11.7333 132.6 10.8933 131.96 10.2C131.346 9.50667 130.6 8.97333 129.72 8.6C128.84 8.2 127.84 8 126.72 8H120.96L122 6.72V25.36ZM145.418 30V8.76H151.498L151.778 15.68L150.578 14.36C150.898 13.2133 151.418 12.1867 152.138 11.28C152.885 10.3733 153.751 9.65333 154.738 9.12C155.725 8.58666 156.778 8.32 157.898 8.32C158.378 8.32 158.818 8.36 159.218 8.44C159.645 8.52 160.031 8.61333 160.378 8.72L158.618 15.8C158.325 15.6133 157.925 15.4667 157.418 15.36C156.938 15.2267 156.431 15.16 155.898 15.16C155.311 15.16 154.765 15.2667 154.258 15.48C153.751 15.6667 153.325 15.9467 152.978 16.32C152.631 16.6933 152.351 17.1333 152.138 17.64C151.951 18.1467 151.858 18.72 151.858 19.36V30H145.418ZM172.843 30.4C170.496 30.4 168.456 29.9333 166.723 29C164.989 28.04 163.643 26.7467 162.683 25.12C161.723 23.4667 161.243 21.5867 161.243 19.48C161.243 17.8533 161.509 16.36 162.043 15C162.576 13.64 163.323 12.4667 164.283 11.48C165.243 10.4667 166.376 9.69333 167.683 9.16C169.016 8.6 170.469 8.32 172.043 8.32C173.536 8.32 174.896 8.58666 176.123 9.12C177.376 9.65333 178.456 10.4 179.363 11.36C180.269 12.32 180.963 13.4533 181.443 14.76C181.923 16.0667 182.136 17.4933 182.083 19.04L182.043 20.76H165.123L164.203 17.16H176.843L176.163 17.92V17.12C176.109 16.4533 175.896 15.8667 175.523 15.36C175.176 14.8267 174.709 14.4133 174.123 14.12C173.536 13.8267 172.869 13.68 172.123 13.68C171.083 13.68 170.189 13.8933 169.443 14.32C168.723 14.72 168.176 15.32 167.803 16.12C167.429 16.8933 167.243 17.8533 167.243 19C167.243 20.1733 167.483 21.2 167.963 22.08C168.469 22.9333 169.189 23.6 170.123 24.08C171.083 24.56 172.216 24.8 173.523 24.8C174.429 24.8 175.229 24.6667 175.923 24.4C176.643 24.1333 177.416 23.68 178.243 23.04L181.243 27.28C180.416 28 179.536 28.5867 178.603 29.04C177.669 29.4933 176.709 29.8267 175.723 30.04C174.763 30.28 173.803 30.4 172.843 30.4ZM194 30.36C192.214 30.36 190.614 29.8933 189.2 28.96C187.814 28 186.707 26.6933 185.88 25.04C185.054 23.36 184.64 21.4667 184.64 19.36C184.64 17.2 185.054 15.2933 185.88 13.64C186.707 11.9867 187.84 10.6933 189.28 9.76C190.72 8.8 192.36 8.32 194.2 8.32C195.214 8.32 196.134 8.46666 196.96 8.76C197.814 9.05333 198.56 9.46667 199.2 10C199.84 10.5067 200.387 11.1067 200.84 11.8C201.294 12.4667 201.627 13.1867 201.84 13.96L200.52 13.8V8.76H206.88V30H200.4V24.88L201.84 24.84C201.627 25.5867 201.28 26.2933 200.8 26.96C200.32 27.6267 199.734 28.2133 199.04 28.72C198.347 29.2267 197.574 29.6267 196.72 29.92C195.867 30.2133 194.96 30.36 194 30.36ZM195.76 24.96C196.747 24.96 197.6 24.7333 198.32 24.28C199.04 23.8267 199.6 23.1867 200 22.36C200.4 21.5067 200.6 20.5067 200.6 19.36C200.6 18.2133 200.4 17.2267 200 16.4C199.6 15.5467 199.04 14.8933 198.32 14.44C197.6 13.96 196.747 13.72 195.76 13.72C194.8 13.72 193.96 13.96 193.24 14.44C192.547 14.8933 192 15.5467 191.6 16.4C191.2 17.2267 191 18.2133 191 19.36C191 20.5067 191.2 21.5067 191.6 22.36C192 23.1867 192.547 23.8267 193.24 24.28C193.96 24.7333 194.8 24.96 195.76 24.96ZM212.488 30V8.76H218.568L218.768 12.6L217.928 12.64C218.248 11.9467 218.648 11.3333 219.128 10.8C219.634 10.2667 220.194 9.82667 220.808 9.48C221.448 9.10667 222.101 8.82667 222.768 8.64C223.461 8.45333 224.154 8.36 224.848 8.36C225.888 8.36 226.834 8.52 227.688 8.84C228.541 9.16 229.288 9.68 229.928 10.4C230.568 11.0933 231.074 12.04 231.448 13.24L230.448 13.16L230.768 12.52C231.114 11.88 231.554 11.3067 232.088 10.8C232.648 10.2667 233.261 9.82667 233.928 9.48C234.594 9.10667 235.288 8.82667 236.008 8.64C236.728 8.45333 237.421 8.36 238.088 8.36C239.768 8.36 241.168 8.69333 242.288 9.36C243.408 10 244.248 10.9733 244.808 12.28C245.394 13.5867 245.688 15.1733 245.688 17.04V30H239.248V17.56C239.248 16.7067 239.128 16 238.888 15.44C238.648 14.88 238.288 14.4667 237.808 14.2C237.354 13.9067 236.781 13.76 236.088 13.76C235.528 13.76 235.008 13.8533 234.528 14.04C234.074 14.2267 233.674 14.48 233.328 14.8C233.008 15.12 232.754 15.4933 232.568 15.92C232.381 16.3467 232.287 16.8267 232.287 17.36V30H225.848V17.52C225.848 16.72 225.728 16.04 225.488 15.48C225.248 14.92 224.888 14.4933 224.408 14.2C223.928 13.9067 223.368 13.76 222.728 13.76C222.168 13.76 221.648 13.8533 221.168 14.04C220.714 14.2267 220.314 14.48 219.967 14.8C219.648 15.12 219.394 15.4933 219.208 15.92C219.021 16.3467 218.928 16.8133 218.928 17.32V30H212.488ZM258.164 30.4C256.084 30.4 254.244 30.0667 252.644 29.4C251.071 28.7333 249.817 27.84 248.884 26.72L252.764 23.36C253.591 24.1867 254.524 24.8 255.564 25.2C256.604 25.5733 257.591 25.76 258.524 25.76C258.897 25.76 259.231 25.72 259.524 25.64C259.817 25.56 260.057 25.4533 260.244 25.32C260.457 25.16 260.617 24.9867 260.724 24.8C260.831 24.5867 260.884 24.3467 260.884 24.08C260.884 23.5467 260.644 23.1333 260.164 22.84C259.924 22.7067 259.524 22.5467 258.964 22.36C258.404 22.1733 257.684 21.96 256.804 21.72C255.551 21.4 254.457 21.0267 253.524 20.6C252.617 20.1467 251.871 19.6267 251.284 19.04C250.751 18.48 250.337 17.8667 250.044 17.2C249.751 16.5067 249.604 15.7333 249.604 14.88C249.604 13.8933 249.831 13 250.284 12.2C250.764 11.4 251.391 10.7067 252.164 10.12C252.964 9.53333 253.871 9.09333 254.884 8.8C255.924 8.48 256.991 8.32 258.084 8.32C259.257 8.32 260.377 8.45333 261.444 8.72C262.511 8.98667 263.497 9.36 264.404 9.84C265.337 10.32 266.164 10.8933 266.884 11.56L263.524 15.32C263.044 14.8667 262.497 14.4667 261.884 14.12C261.297 13.7467 260.684 13.4533 260.044 13.24C259.404 13.0267 258.817 12.92 258.284 12.92C257.884 12.92 257.524 12.96 257.204 13.04C256.911 13.0933 256.657 13.2 256.444 13.36C256.231 13.4933 256.071 13.6667 255.964 13.88C255.857 14.0667 255.804 14.2933 255.804 14.56C255.804 14.8267 255.871 15.08 256.004 15.32C256.164 15.56 256.377 15.76 256.644 15.92C256.911 16.08 257.337 16.2667 257.924 16.48C258.511 16.6667 259.311 16.9067 260.324 17.2C261.577 17.5467 262.657 17.9333 263.564 18.36C264.471 18.7867 265.191 19.2933 265.724 19.88C266.151 20.3333 266.471 20.8667 266.684 21.48C266.897 22.0667 267.004 22.7067 267.004 23.4C267.004 24.76 266.617 25.9733 265.844 27.04C265.097 28.08 264.057 28.9067 262.724 29.52C261.391 30.1067 259.871 30.4 258.164 30.4Z"/>
</mask>
<path d="M15.76 30H14.76V31H15.76V30ZM15.76 16.04L16.75 15.8986L14.76 16.04H15.76ZM16.04 18L15.2237 18.5776L17.03 17.8586L16.04 18ZM4.72 2V0.999998H2.78753L3.90365 2.57756L4.72 2ZM12.44 2L13.2605 1.42831L12.962 0.999998H12.44V2ZM21.08 14.4L21.0459 15.3994L23.0426 15.4675L21.9005 13.8283L21.08 14.4ZM17.56 14.28L16.7159 13.7438L15.7784 15.2198L17.5259 15.2794L17.56 14.28ZM25.36 2V0.999998H24.8105L24.5159 1.46383L25.36 2ZM32.84 2L33.6749 2.55047L34.6972 0.999998H32.84V2ZM22 18.44L21.0235 18.2246L22.8349 18.9905L22 18.44ZM22.6 15.72H23.6L21.6235 15.5046L22.6 15.72ZM22.6 30V31H23.6V30H22.6ZM16.76 30V16.04H14.76V30H16.76ZM14.7701 16.1814L15.0501 18.1414L17.03 17.8586L16.75 15.8986L14.7701 16.1814ZM16.8563 17.4224L5.53635 1.42243L3.90365 2.57756L15.2237 18.5776L16.8563 17.4224ZM4.72 3H12.44V0.999998H4.72V3ZM11.6195 2.57168L20.2595 14.9717L21.9005 13.8283L13.2605 1.42831L11.6195 2.57168ZM21.1141 13.4006L17.5941 13.2806L17.5259 15.2794L21.0459 15.3994L21.1141 13.4006ZM18.4041 14.8162L26.2041 2.53616L24.5159 1.46383L16.7159 13.7438L18.4041 14.8162ZM25.36 3H32.84V0.999998H25.36V3ZM32.0051 1.44952L21.1651 17.8895L22.8349 18.9905L33.6749 2.55047L32.0051 1.44952ZM22.9765 18.6554L23.5765 15.9354L21.6235 15.5046L21.0235 18.2246L22.9765 18.6554ZM21.6 15.72V30H23.6V15.72H21.6ZM22.6 29H15.76V31H22.6V29ZM36.295 28.96L35.8047 29.8316L35.8105 29.8348L36.295 28.96ZM32.215 25.04L31.3562 25.5525L31.3624 25.5626L32.215 25.04ZM32.215 13.68L31.3623 13.1574L31.3563 13.1675L32.215 13.68ZM36.295 9.76L35.8105 8.88519L35.8047 8.88842L36.295 9.76ZM48.095 9.76L47.6047 10.6316L47.6105 10.6348L48.095 9.76ZM52.175 25.04L51.3163 24.5275L51.3163 24.5275L52.175 25.04ZM48.095 28.96L47.6105 28.0852L47.6047 28.0884L48.095 28.96ZM44.775 24.16L44.2342 23.3188L44.2342 23.3188L44.775 24.16ZM47.135 19.36L46.1353 19.335L46.1347 19.36L46.1353 19.385L47.135 19.36ZM46.535 16.52L45.6405 16.9672L45.6464 16.9786L46.535 16.52ZM39.615 14.52L39.0876 13.6704L39.0809 13.6745L39.0742 13.6788L39.615 14.52ZM37.855 16.52L38.7437 16.9787L38.7494 16.9672L37.855 16.52ZM37.255 19.36L38.2547 19.385L38.2553 19.36L38.2547 19.335L37.255 19.36ZM39.615 24.16L39.0742 25.0012L39.0809 25.0055L39.0876 25.0096L39.615 24.16ZM42.215 29.4C40.151 29.4 38.3478 28.9538 36.7795 28.0852L35.8105 29.8348C37.7088 30.8862 39.8524 31.4 42.215 31.4V29.4ZM36.7853 28.0884C35.2256 27.2111 33.991 26.024 33.0676 24.5174L31.3624 25.5626C32.4657 27.3627 33.951 28.7889 35.8047 29.8316L36.7853 28.0884ZM33.0737 24.5275C32.1893 23.0455 31.735 21.3329 31.735 19.36H29.735C29.735 21.6537 30.2674 23.7278 31.3563 25.5525L33.0737 24.5275ZM31.735 19.36C31.735 17.3871 32.1893 15.6745 33.0737 14.1925L31.3563 13.1675C30.2674 14.9922 29.735 17.0663 29.735 19.36H31.735ZM33.0676 14.2026C33.991 12.696 35.2256 11.5089 36.7853 10.6316L35.8047 8.88842C33.951 9.93113 32.4657 11.3573 31.3624 13.1574L33.0676 14.2026ZM36.7795 10.6348C38.3478 9.76618 40.151 9.32 42.215 9.32V7.32C39.8524 7.32 37.7088 7.83381 35.8105 8.88521L36.7795 10.6348ZM42.215 9.32C44.2794 9.32 46.0664 9.76627 47.6047 10.6316L48.5853 8.88842C46.7103 7.83373 44.5773 7.32 42.215 7.32V9.32ZM47.6105 10.6348C49.194 11.5118 50.4229 12.6954 51.3163 14.1925L53.0337 13.1675C51.9538 11.3579 50.4627 9.9282 48.5795 8.88521L47.6105 10.6348ZM51.3163 14.1925C52.2007 15.6745 52.655 17.3871 52.655 19.36H54.655C54.655 17.0663 54.1226 14.9922 53.0337 13.1675L51.3163 14.1925ZM52.655 19.36C52.655 21.3329 52.2007 23.0455 51.3163 24.5275L53.0337 25.5525C54.1226 23.7278 54.655 21.6537 54.655 19.36H52.655ZM51.3163 24.5275C50.4229 26.0246 49.194 27.2082 47.6105 28.0852L48.5795 29.8348C50.4627 28.7918 51.9538 27.3621 53.0337 25.5525L51.3163 24.5275ZM47.6047 28.0884C46.0664 28.9537 44.2794 29.4 42.215 29.4V31.4C44.5773 31.4 46.7103 30.8863 48.5853 29.8316L47.6047 28.0884ZM42.215 25.88C43.3505 25.88 44.3946 25.5933 45.3158 25.0012L44.2342 23.3188C43.6621 23.6867 42.9995 23.88 42.215 23.88V25.88ZM45.3158 25.0012C46.2171 24.4217 46.9206 23.6333 47.4236 22.6586L45.6464 21.7414C45.2961 22.42 44.8262 22.9383 44.2342 23.3188L45.3158 25.0012ZM47.4236 22.6586C47.938 21.662 48.1649 20.5447 48.1347 19.335L46.1353 19.385C46.1584 20.3086 45.9853 21.0847 45.6464 21.7414L47.4236 22.6586ZM48.1347 19.385C48.1649 18.1753 47.938 17.058 47.4236 16.0614L45.6464 16.9786C45.9853 17.6353 46.1584 18.4114 46.1353 19.335L48.1347 19.385ZM47.4294 16.0728C46.9286 15.0712 46.2249 14.2633 45.3158 13.6788L44.2342 15.3612C44.8185 15.7367 45.288 16.2621 45.6406 16.9672L47.4294 16.0728ZM45.3158 13.6788C44.3946 13.0867 43.3505 12.8 42.215 12.8V14.8C42.9995 14.8 43.6621 14.9933 44.2342 15.3612L45.3158 13.6788ZM42.215 12.8C41.0793 12.8 40.0281 13.0866 39.0876 13.6704L40.1424 15.3696C40.7485 14.9934 41.4307 14.8 42.215 14.8V12.8ZM39.0742 13.6788C38.1651 14.2633 37.4614 15.0712 36.9606 16.0728L38.7494 16.9672C39.102 16.2621 39.5715 15.7367 40.1558 15.3612L39.0742 13.6788ZM36.9664 16.0614C36.452 17.058 36.2251 18.1753 36.2553 19.385L38.2547 19.335C38.2316 18.4114 38.4047 17.6353 38.7436 16.9786L36.9664 16.0614ZM36.2553 19.335C36.2251 20.5447 36.452 21.662 36.9664 22.6586L38.7436 21.7414C38.4047 21.0847 38.2316 20.3086 38.2547 19.385L36.2553 19.335ZM36.9664 22.6586C37.4694 23.6333 38.1729 24.4217 39.0742 25.0012L40.1558 23.3188C39.5638 22.9383 39.0939 22.42 38.7436 21.7414L36.9664 22.6586ZM39.0876 25.0096C40.0281 25.5934 41.0793 25.88 42.215 25.88V23.88C41.4307 23.88 40.7485 23.6866 40.1424 23.3104L39.0876 25.0096ZM61.04 29.44L60.5045 30.2845L60.5164 30.2921L60.5285 30.2993L61.04 29.44ZM58.48 26.48L57.5709 26.8967L57.5745 26.9044L57.5782 26.9121L58.48 26.48ZM57.6 8.76V7.76H56.6V8.76H57.6ZM64.04 8.76H65.04V7.76H64.04V8.76ZM64.44 23.2L65.3571 22.8013L65.3571 22.8013L64.44 23.2ZM65.64 24.64L65.095 25.4784L65.1101 25.4882L65.1255 25.4975L65.64 24.64ZM69.08 24.84L68.7176 23.908L68.7084 23.9116L68.6993 23.9153L69.08 24.84ZM70.28 24.08L70.9871 24.7871L70.9871 24.7871L70.28 24.08ZM71.08 22.92L71.9962 23.3208L72.0005 23.3108L72.0047 23.3007L71.08 22.92ZM71.36 8.76V7.76H70.36V8.76H71.36ZM77.8 8.76H78.8V7.76H77.8V8.76ZM77.8 30V31H78.8V30H77.8ZM71.76 30L70.7621 30.0641L70.8222 31H71.76V30ZM71.48 25.64L71.1086 24.7115L70.4356 24.9807L70.4821 25.7041L71.48 25.64ZM72.68 25.16L73.6336 25.4611L74.2696 23.4471L72.3086 24.2315L72.68 25.16ZM71.08 27.88L71.7994 28.5746L71.8053 28.5685L71.8111 28.5623L71.08 27.88ZM68.4 29.76L68.7996 30.6767L68.8094 30.6724L68.8191 30.668L68.4 29.76ZM65.08 29.44C63.6494 29.44 62.4875 29.1379 61.5515 28.5807L60.5285 30.2993C61.8325 31.0754 63.364 31.44 65.08 31.44V29.44ZM61.5755 28.5955C60.6556 28.0121 59.9222 27.1757 59.3818 26.0479L57.5782 26.9121C58.2645 28.3443 59.2377 29.4812 60.5045 30.2845L61.5755 28.5955ZM59.3891 26.0633C58.8761 24.9443 58.6 23.5602 58.6 21.88H56.6C56.6 23.7731 56.9105 25.4557 57.5709 26.8967L59.3891 26.0633ZM58.6 21.88V8.76H56.6V21.88H58.6ZM57.6 9.76H64.04V7.76H57.6V9.76ZM63.04 8.76V21H65.04V8.76H63.04ZM63.04 21C63.04 21.9541 63.1887 22.83 63.5229 23.5987L65.3571 22.8013C65.158 22.3433 65.04 21.7526 65.04 21H63.04ZM63.5229 23.5987C63.8636 24.3822 64.3885 25.0192 65.095 25.4784L66.185 23.8016C65.8248 23.5674 65.5498 23.2445 65.3571 22.8013L63.5229 23.5987ZM65.1255 25.4975C65.8428 25.9279 66.6686 26.12 67.56 26.12V24.12C66.9581 24.12 66.5038 23.9921 66.1545 23.7825L65.1255 25.4975ZM67.56 26.12C68.2322 26.12 68.8707 26.0076 69.4608 25.7647L68.6993 23.9153C68.3827 24.0457 68.0078 24.12 67.56 24.12V26.12ZM69.4424 25.772C70.0339 25.542 70.5564 25.2178 70.9871 24.7871L69.5729 23.3729C69.3636 23.5822 69.0861 23.7647 68.7176 23.908L69.4424 25.772ZM70.9871 24.7871C71.4172 24.357 71.7569 23.8677 71.9962 23.3208L70.1638 22.5192C70.0298 22.8257 69.8361 23.1097 69.5729 23.3729L70.9871 24.7871ZM72.0047 23.3007C72.2453 22.7164 72.36 22.0924 72.36 21.44H70.36C70.36 21.8543 70.288 22.2169 70.1553 22.5393L72.0047 23.3007ZM72.36 21.44V8.76H70.36V21.44H72.36ZM71.36 9.76H77.8V7.76H71.36V9.76ZM76.8 8.76V30H78.8V8.76H76.8ZM77.8 29H71.76V31H77.8V29ZM72.7579 29.9359L72.4779 25.5759L70.4821 25.7041L70.7621 30.0641L72.7579 29.9359ZM71.8514 26.5685L73.0514 26.0885L72.3086 24.2315L71.1086 24.7115L71.8514 26.5685ZM71.7264 24.8589C71.4526 25.7259 70.9971 26.5032 70.3489 27.1977L71.8111 28.5623C72.6562 27.6568 73.2674 26.6208 73.6336 25.4611L71.7264 24.8589ZM70.3606 27.1854C69.7055 27.8639 68.9159 28.4205 67.9809 28.852L68.8191 30.668C69.9641 30.1395 70.9612 29.4427 71.7994 28.5746L70.3606 27.1854ZM68.0004 28.8433C67.0908 29.2398 66.1206 29.44 65.08 29.44V31.44C66.386 31.44 67.6292 31.1869 68.7996 30.6767L68.0004 28.8433ZM83.5041 30H82.5041V31H83.5041V30ZM83.5041 8.76V7.76H82.5041V8.76H83.5041ZM89.5841 8.76L90.5832 8.71957L90.5444 7.76H89.5841V8.76ZM89.8641 15.68L89.1241 16.3527L90.9745 18.388L90.8632 15.6396L89.8641 15.68ZM88.6641 14.36L87.7009 14.0912L87.5523 14.6236L87.9241 15.0327L88.6641 14.36ZM90.2241 11.28L89.4521 10.6443L89.4465 10.6512L89.441 10.6581L90.2241 11.28ZM92.8241 9.12L93.2996 9.99971L93.2996 9.99971L92.8241 9.12ZM97.3041 8.44L97.1079 9.42065L97.1198 9.42287L97.3041 8.44ZM98.4641 8.72L99.4345 8.96125L99.6629 8.0426L98.7581 7.76422L98.4641 8.72ZM96.7041 15.8L96.1672 16.6437L97.3393 17.3896L97.6745 16.0412L96.7041 15.8ZM95.5041 15.36L95.2364 16.3235L95.267 16.332L95.2981 16.3385L95.5041 15.36ZM92.3441 15.48L92.6898 16.4183L92.7111 16.4105L92.7321 16.4016L92.3441 15.48ZM91.0641 16.32L91.7969 17.0005L91.7969 17.0005L91.0641 16.32ZM90.2241 17.64L89.3024 17.2519L89.2936 17.2729L89.2857 17.2943L90.2241 17.64ZM89.9441 30V31H90.9441V30H89.9441ZM84.5041 30V8.76H82.5041V30H84.5041ZM83.5041 9.76H89.5841V7.76H83.5041V9.76ZM88.5849 8.80043L88.8649 15.7204L90.8632 15.6396L90.5832 8.71957L88.5849 8.80043ZM90.604 15.0073L89.404 13.6873L87.9241 15.0327L89.1241 16.3527L90.604 15.0073ZM89.6273 14.6288C89.9124 13.6069 90.3725 12.7011 91.0072 11.9019L89.441 10.6581C88.6356 11.6723 88.0557 12.8197 87.7009 14.0912L89.6273 14.6288ZM90.996 11.9157C91.6645 11.104 92.4319 10.4687 93.2996 9.99971L92.3485 8.24029C91.2429 8.83793 90.277 9.6427 89.4521 10.6443L90.996 11.9157ZM93.2996 9.99971C94.1404 9.54521 95.0303 9.32 95.9841 9.32V7.32C94.6978 7.32 93.4811 7.62812 92.3485 8.24029L93.2996 9.99971ZM95.9841 9.32C96.4094 9.32 96.7827 9.35552 97.1079 9.42058L97.5002 7.45942C97.0255 7.36448 96.5187 7.32 95.9841 7.32V9.32ZM97.1198 9.42287C97.5163 9.49722 97.8656 9.58211 98.17 9.67578L98.7581 7.76422C98.3692 7.64456 97.9451 7.54278 97.4884 7.45713L97.1198 9.42287ZM97.4936 8.47875L95.7336 15.5588L97.6745 16.0412L99.4345 8.96125L97.4936 8.47875ZM97.2409 14.9563C96.8095 14.6818 96.2823 14.5019 95.7101 14.3814L95.2981 16.3385C95.7392 16.4314 96.0119 16.5449 96.1672 16.6437L97.2409 14.9563ZM95.7717 14.3965C95.1986 14.2373 94.6015 14.16 93.9841 14.16V16.16C94.4333 16.16 94.8495 16.216 95.2364 16.3235L95.7717 14.3965ZM93.9841 14.16C93.2732 14.16 92.5936 14.2899 91.956 14.5584L92.7321 16.4016C93.1079 16.2434 93.5216 16.16 93.9841 16.16V14.16ZM91.9984 14.5417C91.3533 14.7793 90.7913 15.1441 90.3313 15.6395L91.7969 17.0005C92.0302 16.7492 92.3215 16.554 92.6898 16.4183L91.9984 14.5417ZM90.3313 15.6395C89.899 16.1051 89.5575 16.6461 89.3024 17.2519L91.1457 18.0281C91.3173 17.6206 91.5358 17.2816 91.7969 17.0005L90.3313 15.6395ZM89.2857 17.2943C89.0515 17.9301 88.9441 18.6234 88.9441 19.36H90.9441C90.9441 18.8166 91.0233 18.3633 91.1624 17.9857L89.2857 17.2943ZM88.9441 19.36V30H90.9441V19.36H88.9441ZM89.9441 29H83.5041V31H89.9441V29ZM115.2 30H114.2V31H115.2V30ZM115.2 2V0.999998H114.2V2H115.2ZM132.56 3.04L132.183 3.96655L132.196 3.97146L132.56 3.04ZM136.96 5.92L136.245 6.6195L136.253 6.6271L136.96 5.92ZM139.84 10.36L140.771 9.99615L140.771 9.99615L139.84 10.36ZM139.84 21.68L140.771 22.0439L140.773 22.039L139.84 21.68ZM136.96 26.12L137.667 26.8271L137.667 26.8271L136.96 26.12ZM132.56 29L132.924 29.9315L132.936 29.9265L132.56 29ZM122 25.36L121.171 25.9203L123 28.623V25.36H122ZM121.08 24V23H119.196L120.251 24.5603L121.08 24ZM129.72 23.44L130.11 24.3606L130.122 24.3556L130.133 24.3504L129.72 23.44ZM131.96 21.8L131.225 21.1217L131.218 21.1295L131.211 21.1374L131.96 21.8ZM131.96 10.2L131.211 10.8626L131.218 10.8705L131.225 10.8783L131.96 10.2ZM129.72 8.6L129.306 9.51037L129.317 9.51562L129.329 9.52058L129.72 8.6ZM120.96 8L120.184 7.36941L118.859 9H120.96V8ZM122 6.72H123V3.90342L121.224 6.08941L122 6.72ZM116.2 30V2H114.2V30H116.2ZM115.2 3H126.92V0.999998H115.2V3ZM126.92 3C128.859 3 130.609 3.32696 132.183 3.96647L132.936 2.11353C131.097 1.36637 129.087 0.999998 126.92 0.999998V3ZM132.196 3.97146C133.776 4.5889 135.122 5.472 136.245 6.61946L137.674 5.22053C136.344 3.86133 134.756 2.82443 132.924 2.10854L132.196 3.97146ZM136.253 6.6271C137.405 7.77943 138.29 9.14143 138.908 10.7239L140.771 9.99615C140.056 8.16524 139.021 6.56724 137.667 5.21289L136.253 6.6271ZM138.908 10.7238C139.524 12.3014 139.84 14.0562 139.84 16H141.84C141.84 13.8371 141.488 11.8319 140.771 9.99615L138.908 10.7238ZM139.84 16C139.84 17.9435 139.525 19.7137 138.906 21.321L140.773 22.039C141.488 20.1796 141.84 18.1631 141.84 16H139.84ZM138.908 21.3161C138.29 22.8986 137.405 24.2606 136.253 25.4129L137.667 26.8271C139.021 25.4728 140.056 23.8748 140.771 22.0439L138.908 21.3161ZM136.253 25.4129C135.126 26.5393 133.774 27.4273 132.183 28.0735L132.936 29.9265C134.759 29.186 136.34 28.154 137.667 26.8271L136.253 25.4129ZM132.196 28.0685C130.618 28.6848 128.863 29 126.92 29V31C129.083 31 131.088 30.6486 132.924 29.9315L132.196 28.0685ZM126.92 29H115.2V31H126.92V29ZM122.828 24.7997L121.908 23.4397L120.251 24.5603L121.171 25.9203L122.828 24.7997ZM121.08 25H126.72V23H121.08V25ZM126.72 25C127.951 25 129.087 24.7945 130.11 24.3606L129.329 22.5194C128.592 22.8321 127.728 23 126.72 23V25ZM130.133 24.3504C131.136 23.8949 131.998 23.2658 132.709 22.4626L131.211 21.1374C130.695 21.7209 130.064 22.1851 129.306 22.5296L130.133 24.3504ZM132.694 22.4783C133.437 21.6744 133.996 20.7128 134.383 19.6115L132.496 18.9485C132.19 19.8206 131.763 20.5389 131.225 21.1217L132.694 22.4783ZM134.383 19.6115C134.772 18.5039 134.96 17.2965 134.96 16H132.96C132.96 17.1035 132.8 18.0828 132.496 18.9485L134.383 19.6115ZM134.96 16C134.96 14.7035 134.772 13.4961 134.383 12.3885L132.496 13.0515C132.8 13.9172 132.96 14.8965 132.96 16H134.96ZM134.383 12.3885C133.996 11.2872 133.437 10.3256 132.694 9.52172L131.225 10.8783C131.763 11.4611 132.19 12.1794 132.496 13.0515L134.383 12.3885ZM132.709 9.53742C131.993 8.72875 131.123 8.10901 130.11 7.67942L129.329 9.52058C130.077 9.83766 130.699 10.2846 131.211 10.8626L132.709 9.53742ZM130.133 7.68963C129.104 7.22191 127.96 7 126.72 7V9C127.719 9 128.575 9.17809 129.306 9.51037L130.133 7.68963ZM126.72 7H120.96V9H126.72V7ZM121.736 8.63059L122.776 7.35059L121.224 6.08941L120.184 7.36941L121.736 8.63059ZM121 6.72V25.36H123V6.72H121ZM145.418 30H144.418V31H145.418V30ZM145.418 8.76V7.76H144.418V8.76H145.418ZM151.498 8.76L152.497 8.71957L152.458 7.76H151.498V8.76ZM151.778 15.68L151.038 16.3527L152.889 18.388L152.777 15.6396L151.778 15.68ZM150.578 14.36L149.615 14.0912L149.466 14.6236L149.838 15.0327L150.578 14.36ZM152.138 11.28L151.366 10.6443L151.361 10.6512L151.355 10.6581L152.138 11.28ZM154.738 9.12L155.214 9.99971L155.214 9.99971L154.738 9.12ZM159.218 8.44L159.022 9.42065L159.034 9.42287L159.218 8.44ZM160.378 8.72L161.349 8.96125L161.577 8.0426L160.672 7.76422L160.378 8.72ZM158.618 15.8L158.081 16.6437L159.253 17.3896L159.589 16.0412L158.618 15.8ZM157.418 15.36L157.15 16.3235L157.181 16.332L157.212 16.3385L157.418 15.36ZM154.258 15.48L154.604 16.4183L154.625 16.4105L154.646 16.4016L154.258 15.48ZM152.978 16.32L153.711 17.0005L153.711 17.0005L152.978 16.32ZM152.138 17.64L151.216 17.2519L151.208 17.2729L151.2 17.2943L152.138 17.64ZM151.858 30V31H152.858V30H151.858ZM146.418 30V8.76H144.418V30H146.418ZM145.418 9.76H151.498V7.76H145.418V9.76ZM150.499 8.80043L150.779 15.7204L152.777 15.6396L152.497 8.71957L150.499 8.80043ZM152.518 15.0073L151.318 13.6873L149.838 15.0327L151.038 16.3527L152.518 15.0073ZM151.541 14.6288C151.826 13.6069 152.287 12.7011 152.921 11.9019L151.355 10.6581C150.55 11.6723 149.97 12.8197 149.615 14.0912L151.541 14.6288ZM152.91 11.9157C153.579 11.104 154.346 10.4687 155.214 9.99971L154.263 8.24029C153.157 8.83793 152.191 9.6427 151.366 10.6443L152.91 11.9157ZM155.214 9.99971C156.054 9.54521 156.944 9.32 157.898 9.32V7.32C156.612 7.32 155.395 7.62812 154.263 8.24029L155.214 9.99971ZM157.898 9.32C158.323 9.32 158.697 9.35552 159.022 9.42058L159.414 7.45942C158.94 7.36448 158.433 7.32 157.898 7.32V9.32ZM159.034 9.42287C159.43 9.49722 159.78 9.58211 160.084 9.67578L160.672 7.76422C160.283 7.64456 159.859 7.54278 159.402 7.45713L159.034 9.42287ZM159.408 8.47875L157.648 15.5588L159.589 16.0412L161.349 8.96125L159.408 8.47875ZM159.155 14.9563C158.724 14.6818 158.196 14.5019 157.624 14.3814L157.212 16.3385C157.653 16.4314 157.926 16.5449 158.081 16.6437L159.155 14.9563ZM157.686 14.3965C157.113 14.2373 156.516 14.16 155.898 14.16V16.16C156.347 16.16 156.764 16.216 157.15 16.3235L157.686 14.3965ZM155.898 14.16C155.187 14.16 154.508 14.2899 153.87 14.5584L154.646 16.4016C155.022 16.2434 155.436 16.16 155.898 16.16V14.16ZM153.912 14.5417C153.267 14.7793 152.705 15.1441 152.245 15.6395L153.711 17.0005C153.944 16.7492 154.236 16.554 154.604 16.4183L153.912 14.5417ZM152.245 15.6395C151.813 16.1051 151.472 16.6461 151.216 17.2519L153.06 18.0281C153.231 17.6206 153.45 17.2816 153.711 17.0005L152.245 15.6395ZM151.2 17.2943C150.966 17.9301 150.858 18.6234 150.858 19.36H152.858C152.858 18.8166 152.937 18.3633 153.076 17.9857L151.2 17.2943ZM150.858 19.36V30H152.858V19.36H150.858ZM151.858 29H145.418V31H151.858V29ZM166.723 29L166.238 29.8749L166.249 29.8805L166.723 29ZM162.683 25.12L161.818 25.6221L161.822 25.6283L162.683 25.12ZM162.043 15L161.112 14.6349L161.112 14.6349L162.043 15ZM164.283 11.48L165 12.1774L165.009 12.1677L164.283 11.48ZM167.683 9.16L168.061 10.0859L168.07 10.082L167.683 9.16ZM176.123 9.12L175.724 10.0371L175.731 10.0402L176.123 9.12ZM179.363 11.36L180.09 10.6734L179.363 11.36ZM182.083 19.04L181.083 19.0055L181.083 19.0168L182.083 19.04ZM182.043 20.76V21.76H183.02L183.043 20.7832L182.043 20.76ZM165.123 20.76L164.154 21.0076L164.346 21.76H165.123V20.76ZM164.203 17.16V16.16H162.915L163.234 17.4076L164.203 17.16ZM176.843 17.16L177.588 17.8268L179.079 16.16H176.843V17.16ZM176.163 17.92H175.163V20.5374L176.908 18.5868L176.163 17.92ZM176.163 17.12H177.163V17.0801L177.16 17.0403L176.163 17.12ZM175.523 15.36L174.684 15.905L174.7 15.9296L174.718 15.9532L175.523 15.36ZM174.123 14.12L173.676 15.0144L173.676 15.0144L174.123 14.12ZM169.443 14.32L169.928 15.1942L169.939 15.1882L169.443 14.32ZM167.803 16.12L168.703 16.5548L168.709 16.5429L167.803 16.12ZM167.963 22.08L167.085 22.5589L167.094 22.5749L167.103 22.5905L167.963 22.08ZM170.123 24.08L169.665 24.9693L169.676 24.9744L170.123 24.08ZM175.923 24.4L175.575 23.4622L175.564 23.4667L175.923 24.4ZM178.243 23.04L179.059 22.4624L178.456 21.6102L177.631 22.2493L178.243 23.04ZM181.243 27.28L181.9 28.0341L182.581 27.4404L182.059 26.7024L181.243 27.28ZM178.603 29.04L179.04 29.9395L179.04 29.9395L178.603 29.04ZM175.723 30.04L175.511 29.0626L175.496 29.066L175.48 29.0699L175.723 30.04ZM172.843 29.4C170.63 29.4 168.759 28.9606 167.197 28.1195L166.249 29.8805C168.153 30.906 170.362 31.4 172.843 31.4V29.4ZM167.207 28.1252C165.622 27.2472 164.409 26.0772 163.544 24.6117L161.822 25.6283C162.877 27.4162 164.357 28.8328 166.238 29.8748L167.207 28.1252ZM163.548 24.6179C162.685 23.1323 162.243 21.4288 162.243 19.48H160.243C160.243 21.7446 160.761 23.8011 161.818 25.6221L163.548 24.6179ZM162.243 19.48C162.243 17.9641 162.491 16.5963 162.974 15.3651L161.112 14.6349C160.528 16.1237 160.243 17.7425 160.243 19.48H162.243ZM162.974 15.3651C163.462 14.1213 164.138 13.0629 165 12.1774L163.566 10.7826C162.508 11.8705 161.691 13.1587 161.112 14.6349L162.974 15.3651ZM165.009 12.1677C165.87 11.2588 166.884 10.5661 168.061 10.0858L167.305 8.23415C165.868 8.82059 164.616 9.67454 163.557 10.7923L165.009 12.1677ZM168.07 10.082C169.27 9.57785 170.591 9.32 172.043 9.32V7.32C170.348 7.32 168.762 7.62215 167.296 8.23802L168.07 10.082ZM172.043 9.32C173.415 9.32 174.637 9.56448 175.724 10.0371L176.522 8.20293C175.155 7.60885 173.657 7.32 172.043 7.32V9.32ZM175.731 10.0402C176.862 10.5213 177.827 11.1899 178.636 12.0466L180.09 10.6734C179.086 9.61008 177.89 8.78535 176.514 8.19984L175.731 10.0402ZM178.636 12.0466C179.445 12.9029 180.068 13.9182 180.504 15.1048L182.381 14.4152C181.857 12.9884 181.094 11.7371 180.09 10.6734L178.636 12.0466ZM180.504 15.1048C180.935 16.2773 181.133 17.5736 181.083 19.0055L183.082 19.0745C183.14 17.4131 182.911 15.856 182.381 14.4152L180.504 15.1048ZM181.083 19.0168L181.043 20.7368L183.043 20.7832L183.083 19.0632L181.083 19.0168ZM182.043 19.76H165.123V21.76H182.043V19.76ZM166.092 20.5124L165.172 16.9124L163.234 17.4076L164.154 21.0076L166.092 20.5124ZM164.203 18.16H176.843V16.16H164.203V18.16ZM176.098 16.4932L175.418 17.2532L176.908 18.5868L177.588 17.8268L176.098 16.4932ZM177.163 17.92V17.12H175.163V17.92H177.163ZM177.16 17.0403C177.092 16.2001 176.819 15.4329 176.328 14.7668L174.718 15.9532C174.974 16.3004 175.127 16.7066 175.166 17.1997L177.16 17.0403ZM176.361 14.815C175.914 14.1277 175.311 13.5959 174.57 13.2256L173.676 15.0144C174.108 15.2308 174.438 15.5257 174.684 15.905L176.361 14.815ZM174.57 13.2256C173.826 12.8538 173.003 12.68 172.123 12.68V14.68C172.736 14.68 173.246 14.7996 173.676 15.0144L174.57 13.2256ZM172.123 12.68C170.945 12.68 169.873 12.9223 168.947 13.4518L169.939 15.1882C170.506 14.8643 171.22 14.68 172.123 14.68V12.68ZM168.957 13.4458C168.039 13.9557 167.352 14.7207 166.897 15.6971L168.709 16.5429C169 15.9193 169.406 15.4843 169.928 15.1942L168.957 13.4458ZM166.902 15.6853C166.445 16.6317 166.243 17.7509 166.243 19H168.243C168.243 17.9558 168.414 17.155 168.703 16.5547L166.902 15.6853ZM166.243 19C166.243 20.312 166.512 21.5087 167.085 22.5589L168.841 21.6011C168.454 20.8913 168.243 20.0347 168.243 19H166.243ZM167.103 22.5905C167.711 23.6149 168.575 24.4085 169.665 24.9693L170.58 23.1907C169.804 22.7915 169.228 22.2518 168.823 21.5695L167.103 22.5905ZM169.676 24.9744C170.801 25.5373 172.094 25.8 173.523 25.8V23.8C172.338 23.8 171.364 23.5827 170.57 23.1856L169.676 24.9744ZM173.523 25.8C174.526 25.8 175.452 25.6526 176.282 25.3333L175.564 23.4667C175.007 23.6807 174.333 23.8 173.523 23.8V25.8ZM176.27 25.3377C177.113 25.0257 177.975 24.512 178.855 23.8307L177.631 22.2493C176.857 22.848 176.173 23.241 175.575 23.4623L176.27 25.3377ZM177.426 23.6176L180.426 27.8576L182.059 26.7024L179.059 22.4624L177.426 23.6176ZM180.586 26.5259C179.822 27.1912 179.015 27.7278 178.166 28.1405L179.04 29.9395C180.057 29.4455 181.01 28.8088 181.9 28.0341L180.586 26.5259ZM178.166 28.1405C177.302 28.5599 176.418 28.8666 175.511 29.0626L175.934 31.0174C177.001 30.7867 178.037 30.4267 179.04 29.9395L178.166 28.1405ZM175.48 29.0699C174.597 29.2906 173.719 29.4 172.843 29.4V31.4C173.887 31.4 174.928 31.2694 175.965 31.0101L175.48 29.0699ZM189.2 28.96L188.631 29.7822L188.64 29.7884L188.649 29.7945L189.2 28.96ZM185.88 25.04L184.983 25.4815L184.986 25.4872L185.88 25.04ZM185.88 13.64L184.986 13.1928L185.88 13.64ZM189.28 9.76L189.824 10.5992L189.835 10.592L189.28 9.76ZM196.96 8.76L196.626 9.70247L196.635 9.70569L196.96 8.76ZM199.2 10L198.56 10.7682L198.57 10.7763L198.58 10.784L199.2 10ZM200.84 11.8L200.003 12.3472L200.008 12.3548L200.013 12.3623L200.84 11.8ZM201.84 13.96L201.72 14.9527L203.201 15.1323L202.804 13.6941L201.84 13.96ZM200.52 13.8H199.52V14.6861L200.4 14.7927L200.52 13.8ZM200.52 8.76V7.76H199.52V8.76H200.52ZM206.88 8.76H207.88V7.76H206.88V8.76ZM206.88 30V31H207.88V30H206.88ZM200.4 30H199.4V31H200.4V30ZM200.4 24.88L200.373 23.8804L199.4 23.9074V24.88H200.4ZM201.84 24.84L202.802 25.1147L203.177 23.8025L201.813 23.8404L201.84 24.84ZM200.8 26.96L199.989 26.3757L199.989 26.3757L200.8 26.96ZM199.04 28.72L198.45 27.9126L198.45 27.9126L199.04 28.72ZM196.72 29.92L196.395 28.9743L196.72 29.92ZM198.32 24.28L198.853 25.1262L198.853 25.1262L198.32 24.28ZM200 22.36L200.901 22.7956L200.906 22.7844L200 22.36ZM200 16.4L199.095 16.8245L199.1 16.8356L200 16.4ZM198.32 14.44L197.766 15.272L197.776 15.2793L197.787 15.2862L198.32 14.44ZM193.24 14.44L193.788 15.277L193.795 15.272L193.24 14.44ZM191.6 16.4L192.501 16.8356L192.506 16.8244L191.6 16.4ZM191.6 22.36L190.695 22.7845L190.7 22.7956L191.6 22.36ZM193.24 24.28L192.693 25.117L192.7 25.1217L192.707 25.1262L193.24 24.28ZM194 29.36C192.398 29.36 190.992 28.9448 189.751 28.1255L188.649 29.7945C190.235 30.8418 192.029 31.36 194 31.36V29.36ZM189.77 28.1378C188.534 27.2825 187.534 26.1106 186.775 24.5928L184.986 25.4872C185.88 27.2761 187.093 28.7175 188.631 29.7822L189.77 28.1378ZM186.778 24.5985C186.027 23.0722 185.64 21.3329 185.64 19.36H183.64C183.64 21.6005 184.081 23.6478 184.983 25.4815L186.778 24.5985ZM185.64 19.36C185.64 17.3291 186.028 15.5801 186.775 14.0872L184.986 13.1928C184.079 15.0066 183.64 17.0709 183.64 19.36H185.64ZM186.775 14.0872C187.528 12.5807 188.545 11.428 189.824 10.5992L188.736 8.92085C187.135 9.95869 185.886 11.3926 184.986 13.1928L186.775 14.0872ZM189.835 10.592C191.1 9.74861 192.545 9.32 194.2 9.32V7.32C192.176 7.32 190.34 7.85138 188.726 8.92795L189.835 10.592ZM194.2 9.32C195.117 9.32 195.922 9.4526 196.626 9.70243L197.295 7.81757C196.345 7.48073 195.31 7.32 194.2 7.32V9.32ZM196.635 9.70569C197.383 9.9628 198.021 10.3189 198.56 10.7682L199.84 9.23178C199.1 8.61439 198.244 8.14386 197.285 7.81431L196.635 9.70569ZM198.58 10.784C199.134 11.2229 199.608 11.7426 200.003 12.3472L201.677 11.2528C201.166 10.4707 200.547 9.7904 199.821 9.21595L198.58 10.784ZM200.013 12.3623C200.405 12.9388 200.692 13.5588 200.876 14.2259L202.804 13.6941C202.562 12.8146 202.182 11.9945 201.667 11.2377L200.013 12.3623ZM201.961 12.9673L200.641 12.8073L200.4 14.7927L201.72 14.9527L201.961 12.9673ZM201.52 13.8V8.76H199.52V13.8H201.52ZM200.52 9.76H206.88V7.76H200.52V9.76ZM205.88 8.76V30H207.88V8.76H205.88ZM206.88 29H200.4V31H206.88V29ZM201.4 30V24.88H199.4V30H201.4ZM200.428 25.8796L201.868 25.8396L201.813 23.8404L200.373 23.8804L200.428 25.8796ZM200.879 24.5653C200.699 25.1946 200.405 25.7973 199.989 26.3757L201.612 27.5443C202.155 26.7894 202.555 25.9788 202.802 25.1147L200.879 24.5653ZM199.989 26.3757C199.573 26.953 199.062 27.4653 198.45 27.9126L199.63 29.5274C200.405 28.9613 201.067 28.3004 201.612 27.5443L199.989 26.3757ZM198.45 27.9126C197.842 28.3572 197.159 28.7119 196.395 28.9743L197.045 30.8657C197.989 30.5414 198.852 30.0961 199.63 29.5274L198.45 27.9126ZM196.395 28.9743C195.653 29.2294 194.857 29.36 194 29.36V31.36C195.064 31.36 196.081 31.1972 197.045 30.8657L196.395 28.9743ZM195.76 25.96C196.905 25.96 197.949 25.6952 198.853 25.1262L197.788 23.4338C197.251 23.7715 196.589 23.96 195.76 23.96V25.96ZM198.853 25.1262C199.744 24.5652 200.426 23.7769 200.9 22.7956L199.1 21.9244C198.775 22.5964 198.336 23.0882 197.788 23.4338L198.853 25.1262ZM200.906 22.7844C201.38 21.7727 201.6 20.6222 201.6 19.36H199.6C199.6 20.3912 199.421 21.2407 199.095 21.9356L200.906 22.7844ZM201.6 19.36C201.6 18.099 201.38 16.9564 200.9 15.9644L199.1 16.8356C199.42 17.497 199.6 18.3276 199.6 19.36H201.6ZM200.906 15.9756C200.434 14.9682 199.752 14.1599 198.853 13.5938L197.787 15.2862C198.328 15.6267 198.767 16.1252 199.095 16.8244L200.906 15.9756ZM198.875 13.6079C197.969 13.0036 196.916 12.72 195.76 12.72V14.72C196.578 14.72 197.232 14.9164 197.766 15.272L198.875 13.6079ZM195.76 12.72C194.625 12.72 193.588 13.0066 192.686 13.6079L193.795 15.272C194.333 14.9134 194.975 14.72 195.76 14.72V12.72ZM192.693 13.603C191.824 14.1714 191.163 14.9778 190.695 15.9756L192.506 16.8244C192.838 16.1155 193.27 15.6153 193.788 15.277L192.693 13.603ZM190.7 15.9644C190.22 16.9564 190 18.099 190 19.36H192C192 18.3276 192.18 17.497 192.5 16.8356L190.7 15.9644ZM190 19.36C190 20.6222 190.221 21.7727 190.695 22.7844L192.506 21.9356C192.18 21.2407 192 20.3912 192 19.36H190ZM190.7 22.7956C191.17 23.7673 191.832 24.5538 192.693 25.117L193.788 23.443C193.262 23.0995 192.83 22.606 192.5 21.9244L190.7 22.7956ZM192.707 25.1262C193.607 25.6925 194.637 25.96 195.76 25.96V23.96C194.964 23.96 194.314 23.7742 193.773 23.4338L192.707 25.1262ZM212.488 30H211.488V31H212.488V30ZM212.488 8.76V7.76H211.488V8.76H212.488ZM218.568 8.76L219.566 8.70799L219.517 7.76H218.568V8.76ZM218.768 12.6L218.815 13.5989L219.818 13.5511L219.766 12.548L218.768 12.6ZM217.928 12.64L217.02 12.2209L216.329 13.7173L217.975 13.6389L217.928 12.64ZM219.128 10.8L218.403 10.1112L218.393 10.121L218.384 10.131L219.128 10.8ZM220.808 9.48L221.3 10.3506L221.311 10.3438L220.808 9.48ZM222.768 8.64L222.508 7.67433L222.498 7.67703L222.768 8.64ZM227.688 8.84L228.039 7.90367L228.039 7.90367L227.688 8.84ZM229.928 10.4L229.18 11.0644L229.186 11.0714L229.193 11.0783L229.928 10.4ZM231.448 13.24L231.368 14.2368L232.842 14.3547L232.402 12.9429L231.448 13.24ZM230.448 13.16L229.553 12.7128L228.89 14.0386L230.368 14.1568L230.448 13.16ZM230.768 12.52L229.888 12.0437L229.88 12.0581L229.873 12.0728L230.768 12.52ZM232.088 10.8L232.776 11.525L232.777 11.5241L232.088 10.8ZM233.928 9.48L234.389 10.3672L234.403 10.3601L234.416 10.3525L233.928 9.48ZM236.008 8.64L235.757 7.672L235.757 7.672L236.008 8.64ZM242.288 9.36L241.776 10.2193L241.784 10.2238L241.791 10.2282L242.288 9.36ZM244.808 12.28L243.888 12.6739L243.892 12.6818L243.895 12.6896L244.808 12.28ZM245.688 30V31H246.688V30H245.688ZM239.248 30H238.248V31H239.248V30ZM237.808 14.2L237.264 15.0396L237.292 15.0578L237.322 15.0742L237.808 14.2ZM234.528 14.04L234.165 13.108L234.156 13.1116L234.147 13.1153L234.528 14.04ZM233.328 14.8L232.649 14.0652L232.635 14.0788L232.62 14.0929L233.328 14.8ZM232.287 30V31H233.287V30H232.287ZM225.848 30H224.848V31H225.848V30ZM224.408 14.2L224.929 13.3467L224.929 13.3467L224.408 14.2ZM221.168 14.04L220.805 13.108L220.796 13.1116L220.787 13.1153L221.168 14.04ZM219.967 14.8L219.289 14.0652L219.275 14.0788L219.26 14.0929L219.967 14.8ZM218.928 30V31H219.928V30H218.928ZM213.488 30V8.76H211.488V30H213.488ZM212.488 9.76H218.568V7.76H212.488V9.76ZM217.569 8.81201L217.769 12.652L219.766 12.548L219.566 8.70799L217.569 8.81201ZM218.72 11.6011L217.88 11.6411L217.975 13.6389L218.815 13.5989L218.72 11.6011ZM218.835 13.0591C219.116 12.451 219.462 11.9231 219.871 11.469L218.384 10.131C217.833 10.7436 217.379 11.4424 217.02 12.2209L218.835 13.0591ZM219.852 11.4887C220.294 11.024 220.776 10.6464 221.3 10.3506L220.315 8.60944C219.612 9.00696 218.974 9.5093 218.403 10.1112L219.852 11.4887ZM221.311 10.3438C221.883 10.0103 222.458 9.76512 223.037 9.60296L222.498 7.67703C221.744 7.88821 221.012 8.20299 220.304 8.61622L221.311 10.3438ZM223.027 9.60561C223.639 9.44096 224.245 9.36 224.848 9.36V7.36C224.063 7.36 223.283 7.46571 222.508 7.67438L223.027 9.60561ZM224.848 9.36C225.784 9.36 226.61 9.50393 227.336 9.77633L228.039 7.90367C227.058 7.53607 225.991 7.36 224.848 7.36V9.36ZM227.336 9.77633C228.029 10.036 228.642 10.4587 229.18 11.0644L230.675 9.73564C229.933 8.90125 229.053 8.28402 228.039 7.90367L227.336 9.77633ZM229.193 11.0783C229.704 11.6325 230.149 12.434 230.493 13.5371L232.402 12.9429C231.999 11.646 231.431 10.5541 230.662 9.72172L229.193 11.0783ZM231.527 12.2432L230.527 12.1632L230.368 14.1568L231.368 14.2368L231.527 12.2432ZM231.342 13.6072L231.662 12.9672L229.873 12.0728L229.553 12.7128L231.342 13.6072ZM231.647 12.9963C231.943 12.4497 232.318 11.9601 232.776 11.525L231.399 10.075C230.79 10.6533 230.285 11.3103 229.888 12.0437L231.647 12.9963ZM232.777 11.5241C233.271 11.0537 233.808 10.6693 234.389 10.3672L233.466 8.59278C232.714 8.98407 232.024 9.47962 231.398 10.0759L232.777 11.5241ZM234.416 10.3525C235.01 10.0199 235.624 9.77257 236.258 9.608L235.757 7.672C234.951 7.88076 234.178 8.19342 233.439 8.60749L234.416 10.3525ZM236.258 9.608C236.906 9.44016 237.515 9.36 238.088 9.36V7.36C237.327 7.36 236.549 7.4665 235.757 7.672L236.258 9.608ZM238.088 9.36C239.638 9.36 240.849 9.66772 241.776 10.2193L242.799 8.50071C241.486 7.71895 239.897 7.36 238.088 7.36V9.36ZM241.791 10.2282C242.703 10.7493 243.405 11.5456 243.888 12.6739L245.727 11.8861C245.09 10.4011 244.112 9.25073 242.784 8.49176L241.791 10.2282ZM243.895 12.6896C244.409 13.8347 244.688 15.2736 244.688 17.04H246.688C246.688 15.0731 246.379 13.3386 245.72 11.8704L243.895 12.6896ZM244.688 17.04V30H246.688V17.04H244.688ZM245.688 29H239.248V31H245.688V29ZM240.248 30V17.56H238.248V30H240.248ZM240.248 17.56C240.248 16.6217 240.117 15.7698 239.807 15.0461L237.968 15.8339C238.138 16.2302 238.248 16.7916 238.248 17.56H240.248ZM239.807 15.0461C239.489 14.306 238.988 13.712 238.293 13.3258L237.322 15.0742C237.587 15.2214 237.806 15.454 237.968 15.8339L239.807 15.0461ZM238.351 13.3604C237.695 12.9364 236.919 12.76 236.088 12.76V14.76C236.642 14.76 237.013 14.8769 237.264 15.0396L238.351 13.3604ZM236.088 12.76C235.414 12.76 234.77 12.8726 234.165 13.108L234.89 14.972C235.245 14.8341 235.641 14.76 236.088 14.76V12.76ZM234.147 13.1153C233.588 13.3453 233.086 13.6616 232.649 14.0652L234.006 15.5348C234.262 15.2984 234.56 15.108 234.908 14.9647L234.147 13.1153ZM232.62 14.0929C232.21 14.5036 231.887 14.9817 231.651 15.5192L233.484 16.3208C233.622 16.005 233.805 15.7364 234.035 15.5071L232.62 14.0929ZM231.651 15.5192C231.402 16.0893 231.287 16.7086 231.287 17.36H233.287C233.287 16.9447 233.36 16.604 233.484 16.3208L231.651 15.5192ZM231.287 17.36V30H233.287V17.36H231.287ZM232.287 29H225.848V31H232.287V29ZM226.848 30V17.52H224.848V30H226.848ZM226.848 17.52C226.848 16.6249 226.714 15.8029 226.407 15.0861L224.568 15.8739C224.741 16.2771 224.848 16.8151 224.848 17.52H226.848ZM226.407 15.0861C226.092 14.3521 225.601 13.7573 224.929 13.3467L223.886 15.0533C224.174 15.2294 224.403 15.4879 224.568 15.8739L226.407 15.0861ZM224.929 13.3467C224.271 12.9448 223.526 12.76 222.728 12.76V14.76C223.209 14.76 223.584 14.8686 223.886 15.0533L224.929 13.3467ZM222.728 12.76C222.054 12.76 221.41 12.8726 220.805 13.108L221.53 14.972C221.885 14.8341 222.281 14.76 222.728 14.76V12.76ZM220.787 13.1153C220.228 13.3453 219.726 13.6616 219.289 14.0652L220.646 15.5348C220.902 15.2984 221.2 15.108 221.548 14.9647L220.787 13.1153ZM219.26 14.0929C218.85 14.5036 218.527 14.9817 218.291 15.5192L220.124 16.3208C220.262 16.005 220.445 15.7364 220.675 15.5071L219.26 14.0929ZM218.291 15.5192C218.045 16.083 217.928 16.6876 217.928 17.32H219.928C219.928 16.939 219.997 16.6103 220.124 16.3208L218.291 15.5192ZM217.928 17.32V30H219.928V17.32H217.928ZM218.928 29H212.488V31H218.928V29ZM252.644 29.4L252.254 30.3208L252.259 30.3231L252.644 29.4ZM248.884 26.72L248.229 25.9641L247.488 26.6064L248.116 27.3602L248.884 26.72ZM252.764 23.36L253.471 22.6529L252.813 21.9948L252.109 22.6041L252.764 23.36ZM255.564 25.2L255.205 26.1333L255.216 26.1374L255.226 26.1412L255.564 25.2ZM260.244 25.32L260.825 26.1337L260.835 26.127L260.844 26.12L260.244 25.32ZM260.724 24.8L261.592 25.2961L261.606 25.272L261.618 25.2472L260.724 24.8ZM260.164 22.84L260.686 21.9867L260.668 21.9759L260.65 21.9658L260.164 22.84ZM256.804 21.72L257.067 20.7552L257.059 20.7531L257.051 20.7511L256.804 21.72ZM253.524 20.6L253.077 21.4944L253.092 21.5022L253.108 21.5095L253.524 20.6ZM251.284 19.04L250.56 19.7297L250.568 19.7385L250.577 19.7471L251.284 19.04ZM250.044 17.2L249.123 17.5896L249.126 17.5962L249.129 17.6027L250.044 17.2ZM250.284 12.2L249.427 11.6855L249.42 11.6962L249.414 11.707L250.284 12.2ZM252.164 10.12L251.573 9.3136L251.566 9.3184L251.56 9.32331L252.164 10.12ZM254.884 8.8L255.162 9.76056L255.17 9.75824L255.178 9.75578L254.884 8.8ZM261.444 8.72L261.202 9.69014L261.202 9.69014L261.444 8.72ZM264.404 9.84L263.936 10.7239L263.947 10.7293L264.404 9.84ZM266.884 11.56L267.63 12.2263L268.284 11.4937L267.563 10.8262L266.884 11.56ZM263.524 15.32L262.837 16.047L263.585 16.7528L264.27 15.9863L263.524 15.32ZM261.884 14.12L261.347 14.9637L261.369 14.9777L261.392 14.9906L261.884 14.12ZM260.044 13.24L260.36 12.2913L260.36 12.2913L260.044 13.24ZM257.204 13.04L257.383 14.0239L257.415 14.018L257.447 14.0101L257.204 13.04ZM256.444 13.36L256.974 14.208L257.01 14.1855L257.044 14.16L256.444 13.36ZM255.964 13.88L256.832 14.3761L256.846 14.352L256.858 14.3272L255.964 13.88ZM256.004 15.32L255.13 15.8056L255.15 15.841L255.172 15.8747L256.004 15.32ZM256.644 15.92L257.159 15.0625L257.159 15.0625L256.644 15.92ZM257.924 16.48L257.582 17.4198L257.601 17.4268L257.621 17.4329L257.924 16.48ZM260.324 17.2L260.046 18.1606L260.057 18.1638L260.324 17.2ZM265.724 19.88L264.984 20.5527L264.99 20.5591L264.996 20.5654L265.724 19.88ZM266.684 21.48L265.739 21.8086L265.744 21.8217L266.684 21.48ZM265.844 27.04L265.034 26.453L265.032 26.4568L265.844 27.04ZM262.724 29.52L263.127 30.4353L263.134 30.432L263.142 30.4285L262.724 29.52ZM258.164 29.4C256.19 29.4 254.485 29.0837 253.029 28.4769L252.259 30.3231C254.003 31.0496 255.978 31.4 258.164 31.4V29.4ZM253.034 28.4792C251.582 27.864 250.468 27.0581 249.652 26.0798L248.116 27.3602C249.167 28.6219 250.559 29.6027 252.254 30.3208L253.034 28.4792ZM249.539 27.4759L253.419 24.1159L252.109 22.6041L248.229 25.9641L249.539 27.4759ZM252.057 24.0671C252.978 24.9877 254.028 25.6807 255.205 26.1333L255.923 24.2667C255.02 23.9193 254.204 23.3856 253.471 22.6529L252.057 24.0671ZM255.226 26.1412C256.355 26.5465 257.457 26.76 258.524 26.76V24.76C257.725 24.76 256.853 24.6002 255.902 24.2588L255.226 26.1412ZM258.524 26.76C258.967 26.76 259.391 26.7128 259.787 26.6048L259.261 24.6752C259.07 24.7272 258.828 24.76 258.524 24.76V26.76ZM259.787 26.6048C260.16 26.5032 260.517 26.3542 260.825 26.1337L259.663 24.5063C259.598 24.5525 259.475 24.6168 259.261 24.6752L259.787 26.6048ZM260.844 26.12C261.141 25.8972 261.404 25.6262 261.592 25.2961L259.856 24.3039C259.831 24.3472 259.774 24.4228 259.644 24.52L260.844 26.12ZM261.618 25.2472C261.802 24.8794 261.884 24.4834 261.884 24.08H259.884C259.884 24.2099 259.859 24.294 259.83 24.3528L261.618 25.2472ZM261.884 24.08C261.884 23.1758 261.443 22.4496 260.686 21.9867L259.643 23.6933C259.845 23.817 259.884 23.9176 259.884 24.08H261.884ZM260.65 21.9658C260.323 21.7845 259.848 21.6006 259.28 21.4113L258.648 23.3087C259.2 23.4928 259.525 23.6289 259.678 23.7142L260.65 21.9658ZM259.28 21.4113C258.696 21.2166 257.957 20.9978 257.067 20.7552L256.541 22.6848C257.412 22.9222 258.112 23.1301 258.648 23.3087L259.28 21.4113ZM257.051 20.7511C255.842 20.4422 254.807 20.087 253.94 19.6905L253.108 21.5095C254.108 21.9664 255.26 22.3578 256.557 22.6889L257.051 20.7511ZM253.971 19.7056C253.14 19.29 252.487 18.8289 251.991 18.3329L250.577 19.7471C251.254 20.4245 252.095 21.0033 253.077 21.4944L253.971 19.7056ZM252.008 18.3503C251.55 17.869 251.203 17.3515 250.959 16.7973L249.129 17.6027C249.472 18.3818 249.952 19.091 250.56 19.7297L252.008 18.3503ZM250.965 16.8104C250.73 16.2557 250.604 15.6173 250.604 14.88H248.604C248.604 15.8494 248.771 16.7576 249.123 17.5896L250.965 16.8104ZM250.604 14.88C250.604 14.0531 250.792 13.3317 251.154 12.693L249.414 11.707C248.869 12.6683 248.604 13.7336 248.604 14.88H250.604ZM251.142 12.7145C251.553 12.0282 252.093 11.4295 252.768 10.9167L251.56 9.32331C250.689 9.98387 249.975 10.7718 249.427 11.6855L251.142 12.7145ZM252.755 10.9264C253.455 10.4134 254.254 10.0234 255.162 9.76056L254.606 7.83943C253.487 8.1633 252.473 8.65327 251.573 9.3136L252.755 10.9264ZM255.178 9.75578C256.122 9.46524 257.09 9.32 258.084 9.32V7.32C256.892 7.32 255.726 7.49476 254.59 7.84422L255.178 9.75578ZM258.084 9.32C259.181 9.32 260.219 9.44459 261.202 9.69014L261.687 7.74986C260.535 7.46208 259.334 7.32 258.084 7.32V9.32ZM261.202 9.69014C262.195 9.93862 263.106 10.2842 263.936 10.7238L264.872 8.95621C263.889 8.43584 262.826 8.03471 261.687 7.74986L261.202 9.69014ZM263.947 10.7293C264.805 11.1706 265.556 11.6929 266.205 12.2938L267.563 10.8262C266.772 10.0938 265.87 9.46935 264.861 8.95071L263.947 10.7293ZM266.138 10.8937L262.778 14.6537L264.27 15.9863L267.63 12.2263L266.138 10.8937ZM264.211 14.593C263.668 14.0805 263.055 13.6333 262.376 13.2494L261.392 14.9906C261.94 15.3001 262.42 15.6528 262.837 16.047L264.211 14.593ZM262.421 13.2763C261.767 12.8605 261.08 12.5313 260.36 12.2913L259.728 14.1887C260.288 14.3754 260.827 14.6329 261.347 14.9637L262.421 13.2763ZM260.36 12.2913C259.644 12.0526 258.949 11.92 258.284 11.92V13.92C258.686 13.92 259.164 14.0008 259.728 14.1887L260.36 12.2913ZM258.284 11.92C257.819 11.92 257.376 11.9664 256.962 12.0699L257.447 14.0101C257.673 13.9536 257.949 13.92 258.284 13.92V11.92ZM257.025 12.0561C256.597 12.1339 256.196 12.2963 255.844 12.56L257.044 14.16C257.119 14.1037 257.224 14.0527 257.383 14.0239L257.025 12.0561ZM255.914 12.512C255.554 12.7373 255.263 13.0457 255.07 13.4328L256.858 14.3272C256.878 14.2876 256.908 14.2494 256.974 14.208L255.914 12.512ZM255.096 13.3839C254.884 13.7539 254.804 14.1607 254.804 14.56H256.804C256.804 14.426 256.83 14.3794 256.832 14.3761L255.096 13.3839ZM254.804 14.56C254.804 15.0018 254.917 15.4217 255.13 15.8056L256.878 14.8344C256.825 14.7383 256.804 14.6516 256.804 14.56H254.804ZM255.172 15.8747C255.42 16.2473 255.746 16.5474 256.13 16.7775L257.159 15.0625C257.009 14.9726 256.908 14.8727 256.836 14.7653L255.172 15.8747ZM256.13 16.7775C256.482 16.9888 256.983 17.2018 257.582 17.4198L258.266 15.5402C257.692 15.3315 257.34 15.1712 257.159 15.0625L256.13 16.7775ZM257.621 17.4329C258.22 17.6235 259.029 17.8662 260.046 18.1606L260.602 16.2394C259.592 15.9471 258.802 15.7099 258.227 15.5271L257.621 17.4329ZM260.057 18.1638C261.271 18.4996 262.295 18.8682 263.138 19.2648L263.99 17.4552C263.019 16.9985 261.883 16.5938 260.591 16.2362L260.057 18.1638ZM263.138 19.2648C263.956 19.6497 264.559 20.0853 264.984 20.5527L266.464 19.2073C265.822 18.5014 264.985 17.9236 263.99 17.4552L263.138 19.2648ZM264.996 20.5654C265.322 20.9119 265.57 21.3222 265.74 21.8085L267.629 21.1515C267.371 20.4112 266.979 19.7548 266.452 19.1946L264.996 20.5654ZM265.744 21.8217C265.914 22.2874 266.004 22.8104 266.004 23.4H268.004C268.004 22.6029 267.881 21.8459 267.624 21.1383L265.744 21.8217ZM266.004 23.4C266.004 24.5564 265.68 25.5629 265.034 26.453L266.654 27.627C267.555 26.3838 268.004 24.9636 268.004 23.4H266.004ZM265.032 26.4568C264.4 27.3365 263.505 28.0599 262.306 28.6115L263.142 30.4285C264.609 29.7535 265.795 28.8235 266.656 27.6232L265.032 26.4568ZM262.321 28.6047C261.135 29.1267 259.756 29.4 258.164 29.4V31.4C259.986 31.4 261.647 31.0866 263.127 30.4353L262.321 28.6047Z" fill="#1B1C57" mask="url(#path-2-outside-1_10_5)"/>
</g>
<defs>
<filter id="filter0_d_10_5" x="0.720001" y="2" width="270.284" height="36.44" filterUnits="userSpaceOnUse" color-interpolation-filters="sRGB">
<feFlood flood-opacity="0" result="BackgroundImageFix"/>
<feColorMatrix in="SourceAlpha" type="matrix" values="0 0 0 0 0 0 0 0 0 0 0 0 0 0 0 0 0 0 127 0" result="hardAlpha"/>
<feOffset dy="4"/>
<feGaussianBlur stdDeviation="2"/>
<feComposite in2="hardAlpha" operator="out"/>
<feColorMatrix type="matrix" values="0 0 0 0 0 0 0 0 0 0 0 0 0 0 0 0 0 0 0.25 0"/>
<feBlend mode="normal" in2="BackgroundImageFix" result="effect1_dropShadow_10_5"/>
<feBlend mode="normal" in="SourceGraphic" in2="effect1_dropShadow_10_5" result="shape"/>
</filter>
</defs>
</svg>
